<svg aria-hidden="true" style="position: absolute; width: 0; height: 0; overflow: hidden;" version="1.1" xmlns="http://www.w3.org/2000/svg" xmlns:xlink="http://www.w3.org/1999/xlink">
<defs>
<symbol id="icon-logo" viewBox="0 0 35 32">
<path fill="#02bc6b" style="fill: var(--color1, #02bc6b)" d="M2.71 29.802c-1.49 0-2.71-1.219-2.71-2.71v-9.473h6.821v-0.011h4.099c1.057-0.027 1.951-0.948 1.951-2.032 0-1.111-0.921-2.032-2.032-2.032l-10.839 0.002v-2.711c0-1.49 1.219-2.71 2.71-2.71h8.129c2.059 0 3.821 0.732 5.257 2.195 1.463 1.436 2.195 3.197 2.195 5.257 0 2.032-0.705 3.794-2.141 5.23s-3.17 2.195-5.203 2.222h-5.528v4.065c0 1.49-1.219 2.71-2.71 2.71z"></path>
<path fill="#02897a" style="fill: var(--color2, #02897a)" d="M21.706 4.98c2.994 2.908 4.502 6.529 4.502 10.646 0 4.048-1.445 7.666-4.393 10.583l-4.185-3.937c1.833-1.814 2.733-3.998 2.733-6.645 0-2.667-0.927-4.848-2.804-6.671l4.146-3.975z"></path>
<path fill="#035b81" style="fill: var(--color3, #035b81)" d="M28.113 0c4.312 4.305 6.482 9.643 6.482 15.77 0 6.031-2.082 11.366-6.323 15.68l-4.039-3.946c3.159-3.214 4.707-7.112 4.707-11.734 0-4.669-1.6-8.563-4.828-11.786l4.002-3.984z"></path>
<path fill="#028e37" style="fill: var(--color4, #028e37)" d="M0 23.051h5.419v4.042c0 1.49-1.219 2.71-2.71 2.71s-2.71-1.219-2.71-2.71v-4.042z"></path>
</symbol>
<symbol id="icon-close" viewBox="0 0 32 32">
<path d="M32 3.223l-3.223-3.223-12.777 12.777-12.777-12.777-3.223 3.223 12.777 12.777-12.777 12.777 3.223 3.223 12.777-12.777 12.777 12.777 3.223-3.223-12.777-12.777 12.777-12.777z"></path>
</symbol>
<symbol id="icon-accountants" viewBox="0 0 32 32">
<path fill="#d6b1ff" style="fill: var(--color5, #d6b1ff)" d="M28 32h-12c-0.354 0-0.693-0.141-0.943-0.391s-0.391-0.589-0.391-0.943v-2.667c0-0.354 0.141-0.693 0.391-0.943s0.589-0.391 0.943-0.391h12c0.354 0 0.693 0.141 0.943 0.391s0.391 0.589 0.391 0.943v2.667c0 0.354-0.141 0.693-0.391 0.943s-0.589 0.391-0.943 0.391z"></path>
<path fill="#11b5e4" style="fill: var(--color6, #11b5e4)" d="M28 0h-24c-0.354 0-0.693 0.14-0.943 0.391s-0.391 0.589-0.391 0.943v2.667c0 0.354 0.14 0.693 0.391 0.943s0.589 0.391 0.943 0.391h24c0.354 0 0.693-0.14 0.943-0.391s0.391-0.589 0.391-0.943v-2.667c0-0.354-0.141-0.693-0.391-0.943s-0.589-0.391-0.943-0.391z"></path>
<path fill="#11b5e4" style="fill: var(--color6, #11b5e4)" d="M28 8h-24c-0.354 0-0.693 0.14-0.943 0.391s-0.391 0.589-0.391 0.943v13.333c0 0.354 0.14 0.693 0.391 0.943s0.589 0.391 0.943 0.391h24c0.354 0 0.693-0.141 0.943-0.391s0.391-0.589 0.391-0.943v-13.333c0-0.354-0.141-0.693-0.391-0.943s-0.589-0.391-0.943-0.391z"></path>
</symbol>
<symbol id="icon-activity" viewBox="0 0 32 32">
<path fill="#000" style="fill: var(--color7, #000)" d="M17.996 4.024l-9.328 2.871c-3.399 1.046-4.849 3.681-4.008 7.285l2.305 9.881c0.841 3.604 3.243 5.053 6.642 4.007l9.328-2.871c3.399-1.046 4.84-3.678 3.999-7.283l-2.305-9.881c-0.841-3.604-3.234-5.056-6.633-4.010z"></path>
<path fill="#e31313" style="fill: var(--color8, #e31313)" opacity="0.5" d="M17.329 8.444l-6.162 1.896c-2.245 0.691-3.218 2.366-2.69 4.632l1.449 6.212c0.529 2.266 2.1 3.158 4.345 2.467l6.162-1.896c2.245-0.691 3.212-2.364 2.684-4.63l-1.449-6.212c-0.529-2.266-2.094-3.16-4.34-2.469z"></path>
<path fill="#f03e3d" style="fill: var(--color9, #f03e3d); stroke: var(--color7, #000)" stroke="#000" stroke-linejoin="round" stroke-linecap="round" stroke-miterlimit="4" stroke-width="0.4776" d="M24.149 8.977l0.167 0.002c1.716 0.042 3.161 0.727 4.183 1.901 1.053 1.209 1.644 2.919 1.644 4.939v9.112c0 2.014-0.591 3.722-1.644 4.929-1.056 1.21-2.561 1.901-4.35 1.901h-8.815c-1.789 0-3.297-0.691-4.355-1.901-1.056-1.207-1.649-2.915-1.649-4.929v-9.112c0-2.020 0.593-3.73 1.649-4.939 1.058-1.212 2.567-1.903 4.355-1.903h8.815z"></path>
<path fill="#000" style="fill: var(--color7, #000)" d="M30.984 7.578c-0.825 0-1.494 0.734-1.494 1.639s0.669 1.639 1.494 1.639c0.825 0 1.494-0.734 1.494-1.639 0-0.435-0.157-0.851-0.438-1.159s-0.66-0.48-1.056-0.48z"></path>
<path fill="#000" style="fill: var(--color7, #000)" d="M25.057 18.394l-2.906 4.113c-0.122 0.179-0.306 0.295-0.508 0.323s-0.406-0.036-0.565-0.176l-2.79-2.399-2.512 3.565c-0.182 0.317-0.536 0.459-0.862 0.346s-0.541-0.452-0.524-0.826c-0.001-0.185 0.055-0.365 0.161-0.509l3.004-4.25c0.121-0.177 0.302-0.294 0.502-0.323s0.403 0.031 0.562 0.167l2.79 2.409 2.45-3.457c0.118-0.178 0.297-0.297 0.495-0.328s0.401 0.027 0.56 0.161c0.328 0.282 0.392 0.799 0.143 1.165v0.020z"></path>
</symbol>
<symbol id="icon-airbnb-logo" viewBox="0 0 102 32">
<path fill="#ff385c" style="fill: var(--color10, #ff385c)" d="M29.171 22.679c-0.16-0.39-0.309-0.8-0.469-1.15l-0.738-1.67-0.030-0.030c-2.195-4.8-4.539-9.68-7.023-14.48l-0.1-0.2c-0.249-0.47-0.499-0.99-0.758-1.47-0.319-0.57-0.629-1.18-1.137-1.76-0.496-0.607-1.12-1.096-1.827-1.432s-1.48-0.51-2.263-0.51c-0.783 0-1.556 0.174-2.263 0.51s-1.332 0.825-1.827 1.432c-0.469 0.58-0.818 1.19-1.137 1.76-0.249 0.52-0.499 1.030-0.758 1.5l-0.1 0.2c-2.444 4.8-4.829 9.68-7.023 14.48l-0.060 0.060c-0.219 0.52-0.479 1.060-0.728 1.64-0.16 0.35-0.319 0.73-0.479 1.15-0.431 1.1-0.569 2.293-0.399 3.462s0.64 2.274 1.365 3.206 1.68 1.658 2.77 2.107c1.090 0.449 2.279 0.606 3.448 0.455 1.121-0.148 2.2-0.522 3.172-1.1 1.297-0.73 2.544-1.79 3.941-3.32 1.397 1.53 2.674 2.59 3.941 3.33 1.218 0.717 2.598 1.112 4.011 1.15 1.635 0.007 3.218-0.58 4.456-1.651s2.047-2.556 2.278-4.179c0.267-1.166 0.177-2.386-0.259-3.5v0.010zM14.845 24.339c-1.716-2.2-2.833-4.22-3.212-5.95-0.157-0.641-0.191-1.306-0.1-1.96 0.070-0.51 0.259-0.96 0.519-1.34 0.599-0.87 1.646-1.41 2.793-1.41 0.545-0.017 1.085 0.103 1.573 0.347s0.907 0.606 1.221 1.053c0.259 0.4 0.449 0.84 0.509 1.35 0.1 0.58 0.060 1.25-0.1 1.96-0.379 1.7-1.497 3.74-3.202 5.95zM27.555 25.819c-0.113 0.824-0.44 1.604-0.948 2.262s-1.178 1.171-1.945 1.488c-0.758 0.32-1.596 0.41-2.414 0.32-0.798-0.1-1.596-0.36-2.414-0.84-1.358-0.842-2.58-1.887-3.622-3.1 2.095-2.6 3.362-4.97 3.841-7.080 0.229-1 0.259-1.9 0.16-2.73-0.125-0.787-0.417-1.537-0.858-2.2-0.503-0.719-1.175-1.303-1.956-1.7s-1.648-0.597-2.523-0.58c-1.846 0-3.492 0.86-4.489 2.27-0.449 0.661-0.739 1.418-0.848 2.21-0.13 0.84-0.1 1.77 0.16 2.73 0.479 2.11 1.776 4.51 3.841 7.1-1.024 1.236-2.248 2.291-3.621 3.12-0.828 0.48-1.616 0.73-2.414 0.83-1.241 0.159-2.495-0.179-3.489-0.941s-1.647-1.887-1.819-3.129c-0.1-0.8-0.030-1.6 0.289-2.5 0.1-0.32 0.249-0.64 0.409-1.020 0.219-0.52 0.479-1.060 0.728-1.6l0.040-0.070c2.155-4.77 4.509-9.64 6.954-14.41l0.1-0.2c0.249-0.48 0.499-0.99 0.758-1.47 0.259-0.51 0.539-1 0.898-1.4 0.311-0.372 0.699-0.671 1.138-0.876s0.917-0.312 1.401-0.312c0.484 0 0.962 0.106 1.401 0.312s0.827 0.504 1.138 0.876c0.349 0.4 0.638 0.89 0.898 1.4 0.249 0.48 0.499 1 0.758 1.47l0.1 0.2c2.434 4.77 4.789 9.64 6.984 14.41l0.030 0.030c0.259 0.52 0.479 1.1 0.728 1.6 0.16 0.39 0.319 0.7 0.419 1.030 0.19 0.9 0.289 1.7 0.19 2.5zM41.442 24.119c-0.752 0.011-1.496-0.148-2.179-0.465s-1.284-0.784-1.762-1.365c-1.073-1.24-1.643-2.839-1.596-4.48-0.016-1.677 0.572-3.303 1.656-4.58 0.502-0.589 1.126-1.061 1.829-1.383s1.468-0.484 2.241-0.477c0.727-0.020 1.448 0.146 2.093 0.482s1.196 0.831 1.598 1.438l0.1-1.57h2.913v12.080h-2.923l-0.1-1.76c-0.415 0.649-0.988 1.18-1.666 1.544s-1.437 0.548-2.205 0.536zM42.2 21.239c0.579 0 1.087-0.16 1.566-0.45 0.439-0.32 0.798-0.74 1.078-1.25 0.249-0.51 0.379-1.12 0.379-1.8 0.039-0.591-0.076-1.181-0.333-1.714s-0.648-0.99-1.134-1.326c-0.467-0.292-1.006-0.446-1.556-0.446s-1.089 0.155-1.556 0.446c-0.439 0.32-0.798 0.74-1.077 1.25-0.264 0.562-0.394 1.179-0.379 1.8-0.039 0.591 0.076 1.181 0.333 1.714s0.648 0.99 1.134 1.326c0.469 0.29 0.978 0.45 1.546 0.45zM53.324 8.459c0 0.35-0.060 0.67-0.22 0.93-0.16 0.25-0.379 0.48-0.668 0.64s-0.599 0.22-0.918 0.22-0.639-0.060-0.928-0.22c-0.274-0.153-0.504-0.373-0.668-0.64-0.154-0.285-0.23-0.606-0.22-0.93 0-0.36 0.070-0.68 0.22-0.93 0.16-0.3 0.389-0.48 0.668-0.64 0.289-0.16 0.599-0.23 0.928-0.23 0.318-0.007 0.632 0.068 0.911 0.219s0.516 0.372 0.685 0.641c0.145 0.292 0.217 0.614 0.21 0.94zM49.932 23.759v-12.060h3.172v12.080h-3.182l0.010-0.020zM61.585 14.859v0.040c-0.15-0.070-0.349-0.1-0.499-0.13-0.2-0.040-0.359-0.040-0.549-0.040-0.888 0-1.556 0.26-1.995 0.8-0.479 0.55-0.698 1.32-0.698 2.31v5.93h-3.182v-12.080h2.923l0.1 1.83c0.319-0.64 0.698-1.12 1.237-1.48 0.536-0.35 1.167-0.524 1.806-0.5 0.23 0 0.449 0.020 0.639 0.060 0.1 0.030 0.16 0.030 0.219 0.060v3.2zM62.862 23.759v-17.020h3.173v6.5c0.449-0.58 0.957-1.030 1.596-1.38 1.011-0.497 2.159-0.638 3.26-0.4s2.089 0.84 2.806 1.71c1.076 1.243 1.646 2.845 1.596 4.49 0.017 1.677-0.572 3.303-1.656 4.58-0.502 0.589-1.126 1.061-1.829 1.383s-1.469 0.484-2.241 0.477c-0.727 0.020-1.448-0.146-2.093-0.482s-1.196-0.831-1.598-1.438l-0.1 1.57-2.913 0.030v-0.020zM68.997 21.239c0.569 0 1.078-0.16 1.556-0.45 0.439-0.32 0.798-0.74 1.078-1.25 0.259-0.51 0.379-1.12 0.379-1.8 0-0.67-0.12-1.28-0.379-1.79-0.262-0.492-0.63-0.919-1.078-1.25-0.467-0.292-1.006-0.446-1.556-0.446s-1.089 0.155-1.556 0.446c-0.449 0.32-0.799 0.74-1.088 1.25-0.264 0.562-0.394 1.179-0.379 1.8-0.039 0.591 0.076 1.181 0.333 1.714s0.648 0.99 1.134 1.326c0.468 0.29 0.977 0.45 1.556 0.45zM76.49 23.769v-12.080h2.923l0.1 1.57c0.367-0.602 0.888-1.094 1.51-1.427s1.319-0.492 2.022-0.463c0.804-0.014 1.594 0.21 2.272 0.644s1.213 1.059 1.539 1.796c0.349 0.76 0.539 1.7 0.539 2.75v7.24h-3.183v-6.82c0-0.84-0.189-1.5-0.568-1.99-0.38-0.48-0.898-0.74-1.556-0.74-0.479 0-0.898 0.1-1.267 0.32-0.349 0.23-0.638 0.52-0.858 0.93-0.222 0.414-0.332 0.88-0.319 1.35v6.92h-3.153zM88.98 23.769v-17.040h3.182v6.5c0.431-0.583 0.992-1.058 1.638-1.386s1.359-0.501 2.084-0.504c0.751-0.011 1.496 0.148 2.179 0.464s1.284 0.784 1.762 1.365c1.068 1.242 1.634 2.84 1.586 4.48 0.018 1.677-0.571 3.304-1.656 4.58-0.502 0.589-1.126 1.061-1.829 1.383s-1.469 0.484-2.241 0.477c-0.727 0.020-1.448-0.146-2.093-0.482s-1.196-0.831-1.598-1.438l-0.090 1.57-2.923 0.030zM95.146 21.239c0.579 0 1.087-0.16 1.556-0.45 0.449-0.32 0.798-0.74 1.087-1.25 0.25-0.51 0.379-1.12 0.379-1.8 0.039-0.591-0.076-1.181-0.333-1.714s-0.648-0.99-1.133-1.326c-0.467-0.292-1.006-0.446-1.556-0.446s-1.089 0.155-1.556 0.446c-0.439 0.32-0.798 0.74-1.077 1.25-0.278 0.557-0.409 1.177-0.38 1.8-0.038 0.591 0.076 1.181 0.333 1.714s0.648 0.99 1.134 1.326c0.469 0.29 0.948 0.45 1.546 0.45z"></path>
</symbol>
<symbol id="icon-chart" viewBox="0 0 32 32">
<path fill="#000" style="fill: var(--color7, #000)" d="M16.506 3.281l-9.073 2.594c-3.306 0.945-4.678 3.479-3.792 7.007l2.429 9.67c0.886 3.527 3.261 4.99 6.567 4.045l9.073-2.594c3.306-0.945 4.669-3.477 3.783-7.004l-2.429-9.67c-0.886-3.527-3.252-4.993-6.559-4.048z"></path>
<path fill="#11b5e4" style="fill: var(--color6, #11b5e4)" opacity="0.5" d="M20.977 15.954l-1.648-6.659c-0.598-2.415-2.093-3.498-4.060-2.944l-6.661 1.876c-1.999 0.563-2.773 2.285-2.175 4.701l1.648 6.659c0.607 2.454 2.067 3.505 4.066 2.942l6.661-1.876c1.967-0.554 2.776-2.244 2.169-4.698z"></path>
<path fill="#00acdd" style="fill: var(--color11, #00acdd)" d="M24.394 7.843h-9.392c-3.423 0-5.362 2.069-5.362 5.721v10.011c0 3.652 1.939 5.721 5.362 5.721h9.392c3.423 0 5.353-2.069 5.353-5.721v-10.011c0-3.652-1.93-5.721-5.353-5.721z"></path>
<path fill="#000" style="fill: var(--color7, #000)" d="M24.394 8.294c0.249 0 0.451-0.202 0.451-0.451s-0.202-0.451-0.451-0.451v0.901zM24.394 7.392c-0.249 0-0.451 0.202-0.451 0.451s0.202 0.451 0.451 0.451v-0.901zM24.394 7.843v-0.451h-9.392v0.901h9.392v-0.451zM15.002 7.843v-0.451c-1.803 0-3.276 0.548-4.293 1.633-1.014 1.082-1.519 2.636-1.519 4.538h0.901c0-1.75 0.464-3.056 1.276-3.922 0.808-0.862 2.016-1.348 3.636-1.348v-0.451zM9.64 13.564h-0.451v10.011h0.901v-10.011h-0.451zM9.64 23.575h-0.451c0 1.902 0.506 3.456 1.519 4.538 1.018 1.086 2.49 1.634 4.293 1.634v-0.901c-1.619 0-2.828-0.487-3.636-1.349-0.812-0.866-1.276-2.172-1.276-3.922h-0.451zM15.002 29.296v0.451h9.392v-0.901h-9.392v0.451zM24.394 29.296v0.451c1.804 0 3.274-0.548 4.289-1.634 1.011-1.082 1.514-2.636 1.514-4.538h-0.901c0 1.75-0.462 3.056-1.271 3.922-0.805 0.861-2.012 1.348-3.631 1.348v0.451zM29.747 23.575h0.451v-10.011h-0.901v10.011h0.451zM29.747 13.564h0.451c0-1.901-0.503-3.456-1.514-4.538-1.016-1.086-2.486-1.634-4.289-1.634v0.901c1.619 0 2.825 0.487 3.631 1.348 0.809 0.866 1.271 2.172 1.271 3.922h0.451z"></path>
<path fill="#000" style="fill: var(--color7, #000)" d="M19.729 12.229c-0.456 0-0.831 0.4-0.831 0.896v10.888c0 0.486 0.375 0.887 0.831 0.887 0.465 0 0.84-0.4 0.84-0.887v-10.888c0-0.496-0.375-0.896-0.84-0.896zM15.037 15.748c-0.456 0-0.831 0.4-0.831 0.896v7.37c0 0.486 0.375 0.887 0.831 0.887 0.465 0 0.84-0.4 0.84-0.887v-7.37c0-0.496-0.375-0.896-0.84-0.896zM23.518 20.534c0-0.496 0.375-0.896 0.84-0.896 0.456 0 0.831 0.4 0.831 0.896v3.48c0 0.486-0.375 0.887-0.84 0.887-0.456 0-0.831-0.4-0.831-0.887v-3.48z"></path>
<path fill="#000" style="fill: var(--color7, #000)" d="M18.897 13.125h0.18c0-0.409 0.307-0.716 0.651-0.716v-0.361c-0.567 0-1.011 0.494-1.011 1.077h0.18zM18.897 24.014h0.18v-10.888h-0.361v10.888h0.18zM19.729 24.901v-0.18c-0.345 0-0.651-0.309-0.651-0.706h-0.361c0 0.575 0.445 1.067 1.011 1.067v-0.18zM20.569 24.014h-0.18c0 0.397-0.304 0.706-0.66 0.706v0.361c0.574 0 1.020-0.491 1.020-1.067h-0.18zM20.569 13.125h-0.18v10.888h0.361v-10.888h-0.18zM19.729 12.229v0.18c0.354 0 0.66 0.309 0.66 0.716h0.361c0-0.584-0.445-1.077-1.020-1.077v0.18zM14.206 16.644h0.18c0-0.409 0.307-0.716 0.651-0.716v-0.361c-0.567 0-1.011 0.494-1.011 1.077h0.18zM14.206 24.014h0.18v-7.37h-0.361v7.37h0.18zM15.037 24.901v-0.18c-0.345 0-0.651-0.309-0.651-0.706h-0.361c0 0.575 0.445 1.067 1.011 1.067v-0.18zM15.877 24.014h-0.18c0 0.397-0.304 0.706-0.66 0.706v0.361c0.574 0 1.020-0.491 1.020-1.067h-0.18zM15.877 16.644h-0.18v7.37h0.361v-7.37h-0.18zM15.037 15.748v0.18c0.354 0 0.66 0.309 0.66 0.716h0.361c0-0.584-0.445-1.077-1.020-1.077v0.18zM24.358 19.638v-0.18c-0.575 0-1.020 0.492-1.020 1.077h0.361c0-0.407 0.305-0.716 0.66-0.716v-0.18zM25.189 20.534h0.18c0-0.583-0.444-1.077-1.011-1.077v0.361c0.344 0 0.651 0.307 0.651 0.716h0.18zM25.189 24.014h0.18v-3.48h-0.361v3.48h0.18zM24.349 24.901v0.18c0.574 0 1.020-0.491 1.020-1.067h-0.361c0 0.397-0.304 0.706-0.66 0.706v0.18zM23.518 24.014h-0.18c0 0.575 0.445 1.067 1.011 1.067v-0.361c-0.345 0-0.651-0.309-0.651-0.706h-0.18zM23.518 20.534h-0.18v3.48h0.361v-3.48h-0.18z"></path>
</symbol>
<symbol id="icon-enterpreneur" viewBox="0 0 32 32">
<path fill="#d6b1ff" style="fill: var(--color5, #d6b1ff)" d="M24 13.333h8l-4-5.333-4 5.333zM24 18.667h8l-4 5.333-4-5.333z"></path>
<path fill="#02897a" style="fill: var(--color2, #02897a)" d="M1.333 0h8v32h-8c-0.354 0-0.693-0.141-0.943-0.391s-0.391-0.589-0.391-0.943v-29.333c0-0.354 0.14-0.693 0.391-0.943s0.589-0.391 0.943-0.391z"></path>
<path fill="#02897a" style="fill: var(--color2, #02897a)" d="M12 0h8c0.354 0 0.693 0.14 0.943 0.391s0.391 0.589 0.391 0.943v29.333c0 0.354-0.141 0.693-0.391 0.943s-0.589 0.391-0.943 0.391h-8v-32z"></path>
</symbol>
<symbol id="icon-facebook" viewBox="0 0 32 32">
<path fill="none" stroke="#02897a" style="stroke: var(--color2, #02897a)" stroke-linejoin="round" stroke-linecap="round" stroke-miterlimit="4" stroke-width="2.6667" d="M24 2.667h-4c-1.768 0-3.464 0.702-4.714 1.953s-1.953 2.946-1.953 4.714v4h-4v5.333h4v10.667h5.333v-10.667h4l1.333-5.333h-5.333v-4c0-0.354 0.141-0.693 0.391-0.943s0.589-0.391 0.943-0.391h4v-5.333z"></path>
</symbol>
<symbol id="icon-fedEx-logo" viewBox="0 0 107 32">
<path fill="#f60" style="fill: var(--color12, #f60)" d="M79.321 31.042l8.896-9.852-8.896-9.854h9.386l4.406 4.786 4.242-4.786h9.058l-8.853 9.813 8.975 9.893h-9.425l-4.366-4.826-4.325 4.826h-9.099z"></path>
<path fill="#f60" style="fill: var(--color12, #f60)" d="M79.321 6.919h-10.075v4.417h10.075v6.657h-10.075v6.111h10.075v6.938h-17.48v-31.042h17.48v6.919z"></path>
<path fill="#652c8f" style="fill: var(--color13, #652c8f)" d="M54.468 0v12.704h-0.081c-1.633-1.85-3.672-2.492-6.039-2.492-4.848 0-8.499 3.248-9.781 7.543-1.462-4.732-5.232-7.632-10.822-7.632-4.54 0-8.125 2.009-9.996 5.282v-4.068h-9.384v-4.417h10.241v-6.92h-18.605v31.043h8.365v-13.049h8.338c-0.249 0.959-0.381 1.985-0.381 3.068 0 6.475 5.018 11.019 11.423 11.019 5.386 0 8.935-2.492 10.812-7.036h-7.168c-0.97 1.365-1.705 1.77-3.644 1.77-2.248 0-4.186-1.933-4.186-4.225h14.597c0.633 5.143 4.698 9.579 10.275 9.579 2.406 0 4.609-1.167 5.956-3.136h0.081v2.010h7.374v-31.042h-7.374zM23.791 18.086c0.465-1.972 2.016-3.26 3.953-3.26 2.132 0 3.604 1.249 3.992 3.26 0.163 0-7.945 0-7.945 0zM49.993 26.316c-2.718 0-4.407-2.496-4.407-5.103 0-2.786 1.469-5.466 4.407-5.466 3.046 0 4.26 2.679 4.26 5.466-0 2.642-1.286 5.103-4.26 5.103z"></path>
</symbol>
<symbol id="icon-google-logo" viewBox="0 0 93 32">
<path fill="#ea4335" style="fill: var(--color14, #ea4335)" d="M39.764 16.41c0 4.442-3.432 7.715-7.644 7.715s-7.644-3.273-7.644-7.715c0-4.473 3.432-7.715 7.644-7.715s7.644 3.242 7.644 7.715zM36.418 16.41c0-2.776-1.989-4.675-4.298-4.675s-4.298 1.899-4.298 4.675c0 2.748 1.989 4.675 4.298 4.675s4.298-1.93 4.298-4.675z"></path>
<path fill="#fbbc05" style="fill: var(--color15, #fbbc05)" d="M56.253 16.41c0 4.442-3.432 7.715-7.644 7.715s-7.644-3.273-7.644-7.715c0-4.47 3.432-7.715 7.644-7.715s7.644 3.242 7.644 7.715zM52.907 16.41c0-2.776-1.989-4.675-4.298-4.675s-4.298 1.899-4.298 4.675c0 2.748 1.989 4.675 4.298 4.675s4.298-1.93 4.298-4.675z"></path>
<path fill="#4285f4" style="fill: var(--color16, #4285f4)" d="M72.055 9.162v13.85c0 5.697-3.318 8.024-7.242 8.024-3.693 0-5.915-2.501-6.754-4.546l2.913-1.228c0.519 1.256 1.79 2.737 3.837 2.737 2.511 0 4.067-1.569 4.067-4.522v-1.11h-0.116c-0.749 0.936-2.192 1.753-4.013 1.753-3.809 0-7.3-3.36-7.3-7.683 0-4.355 3.49-7.743 7.3-7.743 1.818 0 3.26 0.817 4.013 1.725h0.116v-1.256h3.178v-0.004zM69.115 16.438c0-2.717-1.79-4.703-4.068-4.703-2.308 0-4.242 1.986-4.242 4.703 0 2.689 1.934 4.647 4.242 4.647 2.278 0 4.068-1.958 4.068-4.647z"></path>
<path fill="#34a853" style="fill: var(--color17, #34a853)" d="M77.294 1.043v22.609h-3.263v-22.609h3.263z"></path>
<path fill="#ea4335" style="fill: var(--color14, #ea4335)" d="M90.012 18.95l2.597 1.753c-0.838 1.256-2.858 3.419-6.348 3.419-4.328 0-7.561-3.388-7.561-7.715 0-4.588 3.26-7.715 7.187-7.715 3.954 0 5.888 3.186 6.52 4.908l0.347 0.876-10.186 4.271c0.78 1.548 1.992 2.337 3.693 2.337 1.704 0 2.886-0.849 3.751-2.136zM82.018 16.174l6.809-2.863c-0.374-0.963-1.501-1.635-2.828-1.635-1.7 0-4.067 1.52-3.981 4.497z"></path>
<path fill="#4285f4" style="fill: var(--color16, #4285f4)" d="M12.123 14.403v-3.273h10.893c0.107 0.57 0.161 1.245 0.161 1.976 0 2.456-0.663 5.492-2.8 7.656-2.078 2.191-4.734 3.36-8.252 3.36-6.52 0-12.003-5.377-12.003-11.979s5.483-11.979 12.003-11.979c3.607 0 6.177 1.433 8.107 3.301l-2.281 2.31c-1.384-1.315-3.26-2.337-5.83-2.337-4.761 0-8.485 3.885-8.485 8.706s3.724 8.706 8.485 8.706c3.088 0 4.847-1.256 5.974-2.396 0.914-0.925 1.515-2.247 1.752-4.052l-7.726 0.003z"></path>
</symbol>
<symbol id="icon-instagram" viewBox="0 0 31 32">
<path fill="none" stroke="#02897a" style="stroke: var(--color2, #02897a)" stroke-linejoin="round" stroke-linecap="round" stroke-miterlimit="4" stroke-width="2.56" d="M21.76 2.58h-12.8c-3.535 0-6.4 2.865-6.4 6.4v12.8c0 3.535 2.865 6.4 6.4 6.4h12.8c3.535 0 6.4-2.865 6.4-6.4v-12.8c0-3.535-2.865-6.4-6.4-6.4z"></path>
<path fill="none" stroke="#02897a" style="stroke: var(--color2, #02897a)" stroke-linejoin="round" stroke-linecap="round" stroke-miterlimit="4" stroke-width="2.56" d="M20.48 14.574c0.158 1.065-0.024 2.153-0.52 3.109s-1.281 1.731-2.243 2.215c-0.962 0.484-2.052 0.653-3.115 0.482s-2.046-0.673-2.807-1.435-1.264-1.744-1.435-2.807c-0.171-1.063-0.003-2.153 0.482-3.115s1.259-1.747 2.215-2.243c0.956-0.496 2.044-0.678 3.109-0.52 1.087 0.161 2.093 0.667 2.869 1.444s1.283 1.783 1.444 2.869z"></path>
<path fill="none" stroke="#02897a" style="stroke: var(--color2, #02897a)" stroke-linejoin="round" stroke-linecap="round" stroke-miterlimit="4" stroke-width="2.56" d="M22.4 8.34h0.013"></path>
</symbol>
<symbol id="icon-logo1" viewBox="0 0 35 32">
<path fill="#02bc6b" style="fill: var(--color1, #02bc6b)" d="M2.71 29.802c-1.49 0-2.71-1.219-2.71-2.71v-9.473h6.821v-0.011h4.099c1.057-0.027 1.951-0.948 1.951-2.032 0-1.111-0.921-2.032-2.032-2.032l-10.839 0.002v-2.711c0-1.49 1.219-2.71 2.71-2.71h8.129c2.059 0 3.821 0.732 5.257 2.195 1.463 1.436 2.195 3.197 2.195 5.257 0 2.032-0.705 3.794-2.141 5.23s-3.17 2.195-5.203 2.222h-5.528v4.065c0 1.49-1.219 2.71-2.71 2.71z"></path>
<path fill="#02897a" style="fill: var(--color2, #02897a)" d="M21.706 4.98c2.994 2.908 4.502 6.529 4.502 10.646 0 4.048-1.445 7.666-4.393 10.583l-4.185-3.937c1.833-1.814 2.733-3.998 2.733-6.645 0-2.667-0.927-4.848-2.804-6.671l4.146-3.975z"></path>
<path fill="#035b81" style="fill: var(--color3, #035b81)" d="M28.113 0c4.312 4.305 6.482 9.643 6.482 15.77 0 6.031-2.082 11.366-6.323 15.68l-4.039-3.946c3.159-3.214 4.707-7.112 4.707-11.734 0-4.669-1.6-8.563-4.828-11.786l4.002-3.984z"></path>
<path fill="#028e37" style="fill: var(--color4, #028e37)" d="M0 23.051h5.419v4.042c0 1.49-1.219 2.71-2.71 2.71s-2.71-1.219-2.71-2.71v-4.042z"></path>
</symbol>
<symbol id="icon-menu" viewBox="0 0 29 32">
<path fill="none" stroke="#173a56" style="stroke: var(--color18, #173a56)" stroke-linejoin="round" stroke-linecap="round" stroke-miterlimit="4" stroke-width="3.0968" d="M3.613 16h21.677"></path>
<path fill="none" stroke="#173a56" style="stroke: var(--color18, #173a56)" stroke-linejoin="round" stroke-linecap="round" stroke-miterlimit="4" stroke-width="3.0968" d="M3.613 8h21.677"></path>
<path fill="none" stroke="#173a56" style="stroke: var(--color18, #173a56)" stroke-linejoin="round" stroke-linecap="round" stroke-miterlimit="4" stroke-width="3.0968" d="M3.613 24h21.677"></path>
</symbol>
<symbol id="icon-microsoft-logo" viewBox="0 0 154 32">
<path fill="#737373" style="fill: var(--color19, #737373)" d="M54.484 18.431l-0.92 2.53h-0.077c-0.153-0.571-0.434-1.439-0.894-2.481l-4.932-12.031h-4.83v19.175h3.194v-11.833c0-0.744 0-1.588-0.026-2.629-0.026-0.521-0.077-0.918-0.102-1.216h0.077c0.153 0.744 0.332 1.29 0.46 1.637l5.929 13.991h2.249l5.878-14.115c0.128-0.322 0.256-0.967 0.383-1.513h0.077c-0.077 1.414-0.128 2.679-0.153 3.448v12.155h3.399v-19.15h-4.651l-5.060 12.031zM67.414 11.808h3.322v13.743h-3.322v-13.743zM69.101 6.003c-0.562 0-1.022 0.198-1.406 0.546s-0.588 0.794-0.588 1.34c0 0.521 0.204 0.967 0.588 1.315s0.843 0.521 1.406 0.521c0.562 0 1.048-0.198 1.406-0.521 0.383-0.347 0.588-0.794 0.588-1.315s-0.204-0.967-0.588-1.34c-0.332-0.347-0.818-0.546-1.406-0.546zM82.518 11.684c-0.613-0.124-1.252-0.198-1.865-0.198-1.508 0-2.888 0.322-4.038 0.967s-2.070 1.538-2.658 2.654c-0.613 1.141-0.92 2.456-0.92 3.969 0 1.315 0.307 2.481 0.894 3.547 0.588 1.042 1.406 1.885 2.504 2.456 1.048 0.571 2.274 0.868 3.654 0.868 1.584 0 2.939-0.323 4.012-0.918l0.026-0.025v-2.977l-0.128 0.099c-0.486 0.347-1.048 0.645-1.61 0.819-0.588 0.198-1.124 0.298-1.584 0.298-1.329 0-2.377-0.372-3.118-1.191-0.767-0.794-1.15-1.885-1.15-3.25 0-1.414 0.383-2.53 1.176-3.349s1.84-1.24 3.118-1.24c1.073 0 2.172 0.347 3.169 1.042l0.128 0.099v-3.15l-0.026-0.025c-0.434-0.174-0.92-0.372-1.584-0.496zM93.481 11.584c-0.818 0-1.584 0.248-2.249 0.769-0.562 0.447-0.945 1.091-1.278 1.86h-0.026v-2.406h-3.322v13.743h3.322v-7.020c0-1.191 0.256-2.183 0.818-2.902 0.562-0.744 1.278-1.116 2.147-1.116 0.307 0 0.613 0.074 0.997 0.124 0.358 0.099 0.613 0.198 0.792 0.322l0.128 0.099v-3.225l-0.076-0.025c-0.231-0.149-0.69-0.223-1.253-0.223zM102.527 11.51c-2.326 0-4.191 0.67-5.495 1.984-1.329 1.315-1.967 3.126-1.967 5.408 0 2.133 0.664 3.87 1.942 5.135 1.278 1.24 3.016 1.885 5.188 1.885 2.275 0 4.089-0.67 5.392-2.009 1.329-1.339 1.968-3.126 1.968-5.333 0-2.183-0.614-3.919-1.865-5.184-1.201-1.265-2.965-1.885-5.162-1.885zM105.185 22.078c-0.614 0.769-1.584 1.141-2.786 1.141s-2.172-0.372-2.862-1.191c-0.69-0.769-1.022-1.885-1.022-3.299 0-1.464 0.358-2.58 1.022-3.374 0.69-0.794 1.636-1.191 2.837-1.191 1.176 0 2.096 0.372 2.76 1.141s1.022 1.885 1.022 3.349c-0.052 1.488-0.332 2.654-0.971 3.423zM116.966 17.513c-1.048-0.422-1.712-0.744-2.019-1.017-0.255-0.248-0.383-0.595-0.383-1.042 0-0.372 0.153-0.744 0.536-0.992s0.818-0.372 1.457-0.372c0.562 0 1.15 0.099 1.712 0.248s1.073 0.372 1.482 0.67l0.128 0.099v-3.026l-0.077-0.025c-0.383-0.149-0.894-0.298-1.508-0.422-0.614-0.099-1.176-0.149-1.636-0.149-1.584 0-2.888 0.372-3.91 1.191-1.022 0.769-1.508 1.811-1.508 3.026 0 0.645 0.103 1.216 0.332 1.687s0.562 0.918 1.022 1.29c0.46 0.347 1.125 0.744 2.044 1.116 0.767 0.322 1.354 0.571 1.713 0.769s0.587 0.422 0.766 0.595c0.128 0.198 0.204 0.447 0.204 0.769 0 0.918-0.715 1.364-2.172 1.364-0.562 0-1.149-0.099-1.84-0.322s-1.329-0.546-1.865-0.918l-0.127-0.099v3.15l0.076 0.025c0.486 0.223 1.073 0.372 1.789 0.546 0.715 0.124 1.354 0.223 1.916 0.223 1.712 0 3.118-0.372 4.115-1.191 1.022-0.794 1.559-1.811 1.559-3.126 0-0.918-0.256-1.736-0.818-2.357-0.741-0.595-1.661-1.215-2.99-1.712zM129.539 11.51c-2.326 0-4.191 0.67-5.495 1.984s-1.967 3.126-1.967 5.408c0 2.133 0.664 3.87 1.942 5.135 1.278 1.24 3.016 1.885 5.188 1.885 2.275 0 4.089-0.67 5.392-2.009 1.329-1.339 1.968-3.126 1.968-5.333 0-2.183-0.614-3.919-1.865-5.184-1.201-1.265-2.965-1.885-5.162-1.885zM132.171 22.078c-0.614 0.769-1.585 1.141-2.786 1.141-1.226 0-2.172-0.372-2.862-1.191-0.69-0.769-1.022-1.885-1.022-3.299 0-1.464 0.358-2.58 1.022-3.374 0.69-0.794 1.636-1.191 2.837-1.191 1.15 0 2.096 0.372 2.76 1.141s1.022 1.885 1.022 3.349c0 1.488-0.332 2.654-0.971 3.423zM154.328 14.462v-2.654h-3.348v-4.068l-0.103 0.025-3.245 0.943v3.101h-5.009v-1.736c0-0.794 0.204-1.414 0.562-1.811s0.895-0.595 1.56-0.595c0.46 0 0.945 0.099 1.482 0.322l0.127 0.074v-2.803l-0.076-0.025c-0.46-0.149-1.073-0.248-1.865-0.248-0.997 0-1.865 0.223-2.658 0.595-0.792 0.422-1.38 0.992-1.815 1.761-0.434 0.744-0.664 1.588-0.664 2.555v1.91h-2.326v2.629h2.326v11.113h3.348v-11.088h5.009v7.070c0 2.902 1.405 4.366 4.216 4.366 0.46 0 0.946-0.074 1.405-0.149 0.486-0.099 0.844-0.223 1.048-0.322l0.025-0.025v-2.654l-0.128 0.099c-0.204 0.124-0.383 0.223-0.69 0.298-0.256 0.074-0.486 0.099-0.664 0.099-0.664 0-1.125-0.149-1.457-0.521-0.306-0.347-0.459-0.918-0.459-1.761v-6.499h3.399z"></path>
<path fill="#f25022" style="fill: var(--color20, #f25022)" d="M0 0h15.665v15.206h-15.665v-15.206z"></path>
<path fill="#7fba00" style="fill: var(--color21, #7fba00)" d="M17.301 0h15.665v15.206h-15.665v-15.206z"></path>
<path fill="#00a4ef" style="fill: var(--color22, #00a4ef)" d="M0 16.794h15.665v15.206h-15.665v-15.206z"></path>
<path fill="#ffb900" style="fill: var(--color23, #ffb900)" d="M17.301 16.794h15.665v15.206h-15.665v-15.206z"></path>
</symbol>
<symbol id="icon-minus_circle" viewBox="0 0 32 32">
<path fill="#02897a" style="fill: var(--color2, #02897a)" d="M0 16c0-8.832 7.168-16 16-16s16 7.168 16 16c0 8.832-7.168 16-16 16s-16-7.168-16-16zM8 17.6h16v-3.2h-16v3.2z"></path>
</symbol>
<symbol id="icon-plus_circle" viewBox="0 0 32 32">
<path fill="#02897a" style="fill: var(--color2, #02897a)" d="M0 16c0-8.832 7.168-16 16-16s16 7.168 16 16c0 8.832-7.168 16-16 16s-16-7.168-16-16zM17.6 17.6h6.4v-3.2h-6.4v-6.4h-3.2v6.4h-6.4v3.2h6.4v6.4h3.2v-6.4z"></path>
</symbol>
<symbol id="icon-star-empty" viewBox="0 0 32 32">
<path fill="#f3cd03" style="fill: var(--color24, #f3cd03)" d="M7.070 19.039l-2.302 9.967c-0.071 0.302-0.050 0.618 0.061 0.908s0.307 0.539 0.562 0.715 0.557 0.272 0.868 0.274c0.31 0.002 0.614-0.090 0.871-0.263l8.412-5.608 8.412 5.608c0.263 0.175 0.573 0.265 0.889 0.258s0.622-0.11 0.877-0.297c0.255-0.186 0.447-0.446 0.551-0.744s0.113-0.621 0.027-0.925l-2.825-9.887 7.007-6.306c0.224-0.202 0.385-0.466 0.461-0.758s0.065-0.6-0.032-0.886c-0.097-0.286-0.276-0.537-0.514-0.723s-0.526-0.297-0.827-0.321l-8.807-0.701-3.811-8.436c-0.121-0.272-0.319-0.502-0.569-0.664s-0.541-0.248-0.839-0.248c-0.298 0-0.589 0.086-0.839 0.248s-0.447 0.393-0.569 0.664l-3.811 8.436-8.807 0.7c-0.296 0.023-0.579 0.132-0.815 0.312s-0.415 0.424-0.516 0.703c-0.101 0.279-0.119 0.581-0.053 0.871s0.215 0.553 0.427 0.761l6.51 6.345zM11.478 12.356c0.276-0.022 0.541-0.117 0.767-0.277s0.405-0.376 0.519-0.629l2.779-6.15 2.779 6.15c0.113 0.252 0.293 0.47 0.519 0.629s0.491 0.255 0.767 0.277l6.136 0.487-5.053 4.548c-0.439 0.395-0.613 1.004-0.453 1.573l1.936 6.774-5.771-3.848c-0.253-0.17-0.552-0.261-0.857-0.261s-0.603 0.091-0.857 0.261l-6.031 4.021 1.622-7.023c0.059-0.258 0.052-0.527-0.023-0.782s-0.214-0.485-0.403-0.67l-4.693-4.576 6.318-0.504z"></path>
</symbol>
<symbol id="icon-star-full" viewBox="0 0 32 32">
<path fill="#f3cd03" style="fill: var(--color24, #f3cd03)" d="M30.884 11.093c-0.097-0.286-0.276-0.537-0.514-0.723s-0.526-0.297-0.827-0.321l-8.807-0.7-3.811-8.436c-0.121-0.272-0.319-0.502-0.568-0.664s-0.541-0.248-0.838-0.248c-0.298-0-0.589 0.086-0.839 0.248s-0.447 0.392-0.569 0.664l-3.811 8.438-8.807 0.7c-0.296 0.023-0.579 0.132-0.815 0.312s-0.415 0.424-0.516 0.703c-0.101 0.279-0.119 0.581-0.053 0.871s0.215 0.553 0.427 0.761l6.508 6.345-2.302 9.967c-0.070 0.302-0.047 0.617 0.064 0.906s0.308 0.537 0.563 0.713c0.255 0.176 0.557 0.271 0.866 0.274s0.613-0.088 0.87-0.261l8.412-5.608 8.412 5.608c0.263 0.175 0.573 0.265 0.889 0.258s0.622-0.11 0.877-0.296c0.255-0.186 0.447-0.446 0.551-0.744s0.112-0.621 0.027-0.925l-2.826-9.887 7.007-6.306c0.459-0.414 0.627-1.060 0.429-1.645z"></path>
</symbol>
<symbol id="icon-tick" viewBox="0 0 39 32">
<path fill="#fff" style="fill: var(--color25, #fff)" d="M38.808 1.462c-0.769-0.785-2.016-0.785-2.785 0l-23.593 24.095-9.069-9.262c-0.769-0.785-2.016-0.785-2.785 0s-0.769 2.059 0 2.844l10.461 10.683c0.769 0.785 2.016 0.785 2.785 0l24.985-25.516c0.769-0.785 0.769-2.059 0-2.844z"></path>
</symbol>
<symbol id="icon-twitter" viewBox="0 0 32 32">
<path fill="none" stroke="#02897a" style="stroke: var(--color2, #02897a)" stroke-linejoin="round" stroke-linecap="round" stroke-miterlimit="4" stroke-width="2.6667" d="M30.667 4.013c-1.277 0.901-2.691 1.589-4.187 2.040-0.803-0.923-1.87-1.578-3.057-1.875s-2.437-0.222-3.58 0.214c-1.143 0.436-2.125 1.213-2.812 2.226s-1.047 2.211-1.031 3.435v1.333c-2.343 0.061-4.665-0.459-6.759-1.513s-3.894-2.609-5.241-4.527c0 0-5.333 12 6.667 17.333-2.746 1.864-6.017 2.799-9.333 2.667 12 6.667 26.667 0 26.667-15.333-0.001-0.371-0.037-0.742-0.107-1.107 1.361-1.342 2.321-3.036 2.773-4.893z"></path>
</symbol>
<symbol id="icon-universities" viewBox="0 0 33 32">
<path fill="#d6b1ff" style="fill: var(--color5, #d6b1ff)" d="M6.902 1.333h-4c-0.354 0-0.693 0.14-0.943 0.391s-0.391 0.589-0.391 0.943v26.667c0 0.354 0.14 0.693 0.391 0.943s0.589 0.391 0.943 0.391h4v-29.333z"></path>
<path fill="#f03e3d" style="fill: var(--color9, #f03e3d)" d="M9.569 30.667h13.333v-29.333h-13.333v29.333zM16.236 25.333c-0.354 0-0.693-0.141-0.943-0.391s-0.391-0.589-0.391-0.943 0.14-0.693 0.391-0.943c0.25-0.25 0.589-0.391 0.943-0.391s0.693 0.141 0.943 0.391c0.25 0.25 0.391 0.589 0.391 0.943s-0.141 0.693-0.391 0.943c-0.25 0.25-0.589 0.391-0.943 0.391zM16.236 6.667c0.354 0 0.693 0.14 0.943 0.391s0.391 0.589 0.391 0.943-0.141 0.693-0.391 0.943c-0.25 0.25-0.589 0.391-0.943 0.391s-0.693-0.14-0.943-0.391c-0.25-0.25-0.391-0.589-0.391-0.943s0.14-0.693 0.391-0.943c0.25-0.25 0.589-0.391 0.943-0.391zM16.236 14.667c0.354 0 0.693 0.141 0.943 0.391s0.391 0.589 0.391 0.943-0.141 0.693-0.391 0.943c-0.25 0.25-0.589 0.391-0.943 0.391s-0.693-0.141-0.943-0.391c-0.25-0.25-0.391-0.589-0.391-0.943s0.14-0.693 0.391-0.943c0.25-0.25 0.589-0.391 0.943-0.391z"></path>
<path fill="#f03e3d" style="fill: var(--color9, #f03e3d)" d="M29.569 1.333h-4v29.333h4c0.354 0 0.693-0.141 0.943-0.391s0.391-0.589 0.391-0.943v-26.667c0-0.354-0.141-0.693-0.391-0.943s-0.589-0.391-0.943-0.391z"></path>
</symbol>
<symbol id="icon-accountants1" viewBox="0 0 32 32">
<path fill="#d6b1ff" style="fill: var(--color5, #d6b1ff)" d="M28 32h-12c-0.354 0-0.693-0.141-0.943-0.391s-0.391-0.589-0.391-0.943v-2.667c0-0.354 0.141-0.693 0.391-0.943s0.589-0.391 0.943-0.391h12c0.354 0 0.693 0.141 0.943 0.391s0.391 0.589 0.391 0.943v2.667c0 0.354-0.141 0.693-0.391 0.943s-0.589 0.391-0.943 0.391z"></path>
<path fill="#11b5e4" style="fill: var(--color6, #11b5e4)" d="M28 0h-24c-0.354 0-0.693 0.14-0.943 0.391s-0.391 0.589-0.391 0.943v2.667c0 0.354 0.14 0.693 0.391 0.943s0.589 0.391 0.943 0.391h24c0.354 0 0.693-0.14 0.943-0.391s0.391-0.589 0.391-0.943v-2.667c0-0.354-0.141-0.693-0.391-0.943s-0.589-0.391-0.943-0.391z"></path>
<path fill="#11b5e4" style="fill: var(--color6, #11b5e4)" d="M28 8h-24c-0.354 0-0.693 0.14-0.943 0.391s-0.391 0.589-0.391 0.943v13.333c0 0.354 0.14 0.693 0.391 0.943s0.589 0.391 0.943 0.391h24c0.354 0 0.693-0.141 0.943-0.391s0.391-0.589 0.391-0.943v-13.333c0-0.354-0.141-0.693-0.391-0.943s-0.589-0.391-0.943-0.391z"></path>
</symbol>
</defs>
</svg>
